<mxfile host="app.diagrams.net" modified="2020-05-17T09:20:42.519Z" agent="5.0 (Windows NT 10.0; Win64; x64) AppleWebKit/537.36 (KHTML, like Gecko) Chrome/81.0.4044.138 Safari/537.36" etag="jVTu5TXiw98slNGXMgck" version="13.0.1" type="github">
  <diagram id="eB92V41LcVw1auvkY4XJ" name="Page-1">
    <mxGraphModel dx="1038" dy="580" grid="0" gridSize="10" guides="1" tooltips="1" connect="1" arrows="1" fold="1" page="1" pageScale="1" pageWidth="827" pageHeight="1169" math="0" shadow="0">
      <root>
        <mxCell id="0" />
        <mxCell id="1" parent="0" />
        <mxCell id="EYLl3Ns2B_sOBYtFW0oG-2" value="BIBLIOTECA" style="text;html=1;strokeColor=none;fillColor=none;align=center;verticalAlign=middle;whiteSpace=wrap;rounded=0;" parent="1" vertex="1">
          <mxGeometry x="374" width="40" height="20" as="geometry" />
        </mxCell>
        <mxCell id="EYLl3Ns2B_sOBYtFW0oG-32" style="edgeStyle=orthogonalEdgeStyle;rounded=0;orthogonalLoop=1;jettySize=auto;html=1;exitX=0;exitY=0.5;exitDx=0;exitDy=0;" parent="1" source="EYLl3Ns2B_sOBYtFW0oG-10" target="EYLl3Ns2B_sOBYtFW0oG-31" edge="1">
          <mxGeometry relative="1" as="geometry" />
        </mxCell>
        <mxCell id="EYLl3Ns2B_sOBYtFW0oG-43" style="edgeStyle=orthogonalEdgeStyle;rounded=0;orthogonalLoop=1;jettySize=auto;html=1;exitX=0;exitY=1;exitDx=0;exitDy=0;" parent="1" source="EYLl3Ns2B_sOBYtFW0oG-10" target="EYLl3Ns2B_sOBYtFW0oG-42" edge="1">
          <mxGeometry relative="1" as="geometry" />
        </mxCell>
        <mxCell id="EYLl3Ns2B_sOBYtFW0oG-48" style="edgeStyle=orthogonalEdgeStyle;rounded=0;orthogonalLoop=1;jettySize=auto;html=1;exitX=1;exitY=1;exitDx=0;exitDy=0;" parent="1" source="EYLl3Ns2B_sOBYtFW0oG-10" target="EYLl3Ns2B_sOBYtFW0oG-47" edge="1">
          <mxGeometry relative="1" as="geometry" />
        </mxCell>
        <mxCell id="_MRYsETtNkQPvjNhpTKL-48" style="edgeStyle=orthogonalEdgeStyle;rounded=0;orthogonalLoop=1;jettySize=auto;html=1;exitX=0.25;exitY=1;exitDx=0;exitDy=0;entryX=1;entryY=0.5;entryDx=0;entryDy=0;" parent="1" source="EYLl3Ns2B_sOBYtFW0oG-10" target="EYLl3Ns2B_sOBYtFW0oG-39" edge="1">
          <mxGeometry relative="1" as="geometry" />
        </mxCell>
        <mxCell id="_MRYsETtNkQPvjNhpTKL-56" style="edgeStyle=orthogonalEdgeStyle;rounded=0;orthogonalLoop=1;jettySize=auto;html=1;exitX=1;exitY=0;exitDx=0;exitDy=0;entryX=0.5;entryY=1;entryDx=0;entryDy=0;" parent="1" source="EYLl3Ns2B_sOBYtFW0oG-10" target="_MRYsETtNkQPvjNhpTKL-54" edge="1">
          <mxGeometry relative="1" as="geometry" />
        </mxCell>
        <mxCell id="_MRYsETtNkQPvjNhpTKL-57" style="edgeStyle=orthogonalEdgeStyle;rounded=0;orthogonalLoop=1;jettySize=auto;html=1;exitX=0.5;exitY=1;exitDx=0;exitDy=0;" parent="1" source="EYLl3Ns2B_sOBYtFW0oG-10" target="_MRYsETtNkQPvjNhpTKL-58" edge="1">
          <mxGeometry relative="1" as="geometry">
            <mxPoint x="395.42857142857156" y="603.8571428571429" as="targetPoint" />
          </mxGeometry>
        </mxCell>
        <mxCell id="_MRYsETtNkQPvjNhpTKL-60" style="edgeStyle=orthogonalEdgeStyle;rounded=0;orthogonalLoop=1;jettySize=auto;html=1;exitX=1;exitY=0.5;exitDx=0;exitDy=0;" parent="1" source="EYLl3Ns2B_sOBYtFW0oG-10" target="_MRYsETtNkQPvjNhpTKL-61" edge="1">
          <mxGeometry relative="1" as="geometry">
            <mxPoint x="659.7142857142858" y="365.28571428571445" as="targetPoint" />
          </mxGeometry>
        </mxCell>
        <mxCell id="EYLl3Ns2B_sOBYtFW0oG-10" value="LIBRO" style="whiteSpace=wrap;html=1;align=center;" parent="1" vertex="1">
          <mxGeometry x="346" y="345" width="100" height="40" as="geometry" />
        </mxCell>
        <mxCell id="EYLl3Ns2B_sOBYtFW0oG-38" style="edgeStyle=orthogonalEdgeStyle;rounded=0;orthogonalLoop=1;jettySize=auto;html=1;exitX=0;exitY=1;exitDx=0;exitDy=0;entryX=0.5;entryY=0;entryDx=0;entryDy=0;" parent="1" source="EYLl3Ns2B_sOBYtFW0oG-11" target="EYLl3Ns2B_sOBYtFW0oG-37" edge="1">
          <mxGeometry relative="1" as="geometry" />
        </mxCell>
        <mxCell id="_MRYsETtNkQPvjNhpTKL-49" style="edgeStyle=orthogonalEdgeStyle;rounded=0;orthogonalLoop=1;jettySize=auto;html=1;exitX=0.5;exitY=1;exitDx=0;exitDy=0;" parent="1" source="EYLl3Ns2B_sOBYtFW0oG-11" target="_MRYsETtNkQPvjNhpTKL-50" edge="1">
          <mxGeometry relative="1" as="geometry">
            <mxPoint x="84" y="269.57142857142867" as="targetPoint" />
          </mxGeometry>
        </mxCell>
        <mxCell id="_MRYsETtNkQPvjNhpTKL-53" style="edgeStyle=orthogonalEdgeStyle;rounded=0;orthogonalLoop=1;jettySize=auto;html=1;exitX=1;exitY=0.5;exitDx=0;exitDy=0;entryX=0;entryY=0.5;entryDx=0;entryDy=0;" parent="1" source="EYLl3Ns2B_sOBYtFW0oG-11" target="_MRYsETtNkQPvjNhpTKL-42" edge="1">
          <mxGeometry relative="1" as="geometry" />
        </mxCell>
        <mxCell id="EYLl3Ns2B_sOBYtFW0oG-11" value="DIPARTIMENTO" style="whiteSpace=wrap;html=1;align=center;" parent="1" vertex="1">
          <mxGeometry x="73" y="35.5" width="100" height="40" as="geometry" />
        </mxCell>
        <mxCell id="EYLl3Ns2B_sOBYtFW0oG-36" style="edgeStyle=orthogonalEdgeStyle;rounded=0;orthogonalLoop=1;jettySize=auto;html=1;exitX=0.25;exitY=1;exitDx=0;exitDy=0;entryX=0.5;entryY=0;entryDx=0;entryDy=0;" parent="1" source="EYLl3Ns2B_sOBYtFW0oG-12" target="EYLl3Ns2B_sOBYtFW0oG-35" edge="1">
          <mxGeometry relative="1" as="geometry" />
        </mxCell>
        <mxCell id="EYLl3Ns2B_sOBYtFW0oG-55" style="edgeStyle=orthogonalEdgeStyle;rounded=0;orthogonalLoop=1;jettySize=auto;html=1;exitX=0.75;exitY=1;exitDx=0;exitDy=0;entryX=0;entryY=0.5;entryDx=0;entryDy=0;" parent="1" source="EYLl3Ns2B_sOBYtFW0oG-12" target="EYLl3Ns2B_sOBYtFW0oG-51" edge="1">
          <mxGeometry relative="1" as="geometry">
            <mxPoint x="872" y="535" as="targetPoint" />
          </mxGeometry>
        </mxCell>
        <mxCell id="EYLl3Ns2B_sOBYtFW0oG-57" style="edgeStyle=orthogonalEdgeStyle;rounded=0;orthogonalLoop=1;jettySize=auto;html=1;exitX=1;exitY=0.5;exitDx=0;exitDy=0;entryX=0;entryY=0.5;entryDx=0;entryDy=0;" parent="1" source="EYLl3Ns2B_sOBYtFW0oG-12" target="EYLl3Ns2B_sOBYtFW0oG-56" edge="1">
          <mxGeometry relative="1" as="geometry">
            <mxPoint x="877.0000000000082" y="478" as="targetPoint" />
          </mxGeometry>
        </mxCell>
        <mxCell id="EYLl3Ns2B_sOBYtFW0oG-58" style="edgeStyle=orthogonalEdgeStyle;rounded=0;orthogonalLoop=1;jettySize=auto;html=1;exitX=0.5;exitY=1;exitDx=0;exitDy=0;" parent="1" source="EYLl3Ns2B_sOBYtFW0oG-12" target="EYLl3Ns2B_sOBYtFW0oG-52" edge="1">
          <mxGeometry relative="1" as="geometry" />
        </mxCell>
        <mxCell id="_MRYsETtNkQPvjNhpTKL-62" style="edgeStyle=orthogonalEdgeStyle;rounded=0;orthogonalLoop=1;jettySize=auto;html=1;exitX=0.5;exitY=0;exitDx=0;exitDy=0;entryX=1;entryY=0.5;entryDx=0;entryDy=0;" parent="1" source="EYLl3Ns2B_sOBYtFW0oG-12" target="_MRYsETtNkQPvjNhpTKL-61" edge="1">
          <mxGeometry relative="1" as="geometry" />
        </mxCell>
        <mxCell id="EYLl3Ns2B_sOBYtFW0oG-12" value="EDITORE" style="whiteSpace=wrap;html=1;align=center;" parent="1" vertex="1">
          <mxGeometry x="761" y="455" width="100" height="40" as="geometry" />
        </mxCell>
        <mxCell id="_MRYsETtNkQPvjNhpTKL-12" style="edgeStyle=orthogonalEdgeStyle;rounded=0;orthogonalLoop=1;jettySize=auto;html=1;exitX=1;exitY=1;exitDx=0;exitDy=0;" parent="1" source="EYLl3Ns2B_sOBYtFW0oG-13" target="_MRYsETtNkQPvjNhpTKL-7" edge="1">
          <mxGeometry relative="1" as="geometry" />
        </mxCell>
        <mxCell id="_MRYsETtNkQPvjNhpTKL-14" style="edgeStyle=orthogonalEdgeStyle;rounded=0;orthogonalLoop=1;jettySize=auto;html=1;exitX=1;exitY=0.75;exitDx=0;exitDy=0;entryX=0;entryY=0.5;entryDx=0;entryDy=0;" parent="1" source="EYLl3Ns2B_sOBYtFW0oG-13" target="_MRYsETtNkQPvjNhpTKL-13" edge="1">
          <mxGeometry relative="1" as="geometry" />
        </mxCell>
        <mxCell id="_MRYsETtNkQPvjNhpTKL-16" style="edgeStyle=orthogonalEdgeStyle;rounded=0;orthogonalLoop=1;jettySize=auto;html=1;exitX=0;exitY=0.75;exitDx=0;exitDy=0;entryX=1;entryY=0.5;entryDx=0;entryDy=0;" parent="1" source="EYLl3Ns2B_sOBYtFW0oG-13" target="_MRYsETtNkQPvjNhpTKL-15" edge="1">
          <mxGeometry relative="1" as="geometry" />
        </mxCell>
        <mxCell id="_MRYsETtNkQPvjNhpTKL-26" style="edgeStyle=orthogonalEdgeStyle;rounded=0;orthogonalLoop=1;jettySize=auto;html=1;exitX=1;exitY=0;exitDx=0;exitDy=0;entryX=0;entryY=1;entryDx=0;entryDy=0;" parent="1" source="EYLl3Ns2B_sOBYtFW0oG-13" target="EYLl3Ns2B_sOBYtFW0oG-33" edge="1">
          <mxGeometry relative="1" as="geometry" />
        </mxCell>
        <mxCell id="_MRYsETtNkQPvjNhpTKL-27" style="edgeStyle=orthogonalEdgeStyle;rounded=0;orthogonalLoop=1;jettySize=auto;html=1;exitX=0.5;exitY=1;exitDx=0;exitDy=0;" parent="1" source="EYLl3Ns2B_sOBYtFW0oG-13" target="_MRYsETtNkQPvjNhpTKL-21" edge="1">
          <mxGeometry relative="1" as="geometry" />
        </mxCell>
        <mxCell id="_MRYsETtNkQPvjNhpTKL-63" style="edgeStyle=orthogonalEdgeStyle;rounded=0;orthogonalLoop=1;jettySize=auto;html=1;exitX=0.5;exitY=0;exitDx=0;exitDy=0;" parent="1" source="EYLl3Ns2B_sOBYtFW0oG-13" target="_MRYsETtNkQPvjNhpTKL-64" edge="1">
          <mxGeometry relative="1" as="geometry">
            <mxPoint x="174" y="782.4285714285716" as="targetPoint" />
          </mxGeometry>
        </mxCell>
        <mxCell id="EYLl3Ns2B_sOBYtFW0oG-13" value="STUDENTE" style="whiteSpace=wrap;html=1;align=center;" parent="1" vertex="1">
          <mxGeometry x="354" y="862" width="100" height="40" as="geometry" />
        </mxCell>
        <mxCell id="EYLl3Ns2B_sOBYtFW0oG-18" style="edgeStyle=orthogonalEdgeStyle;rounded=0;orthogonalLoop=1;jettySize=auto;html=1;exitX=0.5;exitY=0;exitDx=0;exitDy=0;entryX=0.5;entryY=1;entryDx=0;entryDy=0;" parent="1" source="EYLl3Ns2B_sOBYtFW0oG-16" target="EYLl3Ns2B_sOBYtFW0oG-17" edge="1">
          <mxGeometry relative="1" as="geometry" />
        </mxCell>
        <mxCell id="EYLl3Ns2B_sOBYtFW0oG-24" style="edgeStyle=orthogonalEdgeStyle;rounded=0;orthogonalLoop=1;jettySize=auto;html=1;exitX=0.5;exitY=0;exitDx=0;exitDy=0;entryX=0.5;entryY=1;entryDx=0;entryDy=0;" parent="1" source="EYLl3Ns2B_sOBYtFW0oG-14" target="EYLl3Ns2B_sOBYtFW0oG-22" edge="1">
          <mxGeometry relative="1" as="geometry" />
        </mxCell>
        <mxCell id="_MRYsETtNkQPvjNhpTKL-59" style="edgeStyle=orthogonalEdgeStyle;rounded=0;orthogonalLoop=1;jettySize=auto;html=1;exitX=0.5;exitY=1;exitDx=0;exitDy=0;entryX=1;entryY=0.5;entryDx=0;entryDy=0;" parent="1" source="EYLl3Ns2B_sOBYtFW0oG-14" target="_MRYsETtNkQPvjNhpTKL-58" edge="1">
          <mxGeometry relative="1" as="geometry" />
        </mxCell>
        <mxCell id="EYLl3Ns2B_sOBYtFW0oG-14" value="LINGUA" style="whiteSpace=wrap;html=1;align=center;" parent="1" vertex="1">
          <mxGeometry x="535" y="579" width="100" height="40" as="geometry" />
        </mxCell>
        <mxCell id="EYLl3Ns2B_sOBYtFW0oG-26" style="edgeStyle=orthogonalEdgeStyle;rounded=0;orthogonalLoop=1;jettySize=auto;html=1;exitX=0.5;exitY=0;exitDx=0;exitDy=0;entryX=0;entryY=0.5;entryDx=0;entryDy=0;" parent="1" source="EYLl3Ns2B_sOBYtFW0oG-15" target="EYLl3Ns2B_sOBYtFW0oG-25" edge="1">
          <mxGeometry relative="1" as="geometry" />
        </mxCell>
        <mxCell id="EYLl3Ns2B_sOBYtFW0oG-28" style="edgeStyle=orthogonalEdgeStyle;rounded=0;orthogonalLoop=1;jettySize=auto;html=1;exitX=1;exitY=0.5;exitDx=0;exitDy=0;entryX=0;entryY=0.5;entryDx=0;entryDy=0;" parent="1" source="EYLl3Ns2B_sOBYtFW0oG-15" target="EYLl3Ns2B_sOBYtFW0oG-27" edge="1">
          <mxGeometry relative="1" as="geometry" />
        </mxCell>
        <mxCell id="EYLl3Ns2B_sOBYtFW0oG-30" style="edgeStyle=orthogonalEdgeStyle;rounded=0;orthogonalLoop=1;jettySize=auto;html=1;exitX=0.5;exitY=1;exitDx=0;exitDy=0;entryX=0;entryY=0.5;entryDx=0;entryDy=0;" parent="1" source="EYLl3Ns2B_sOBYtFW0oG-15" target="EYLl3Ns2B_sOBYtFW0oG-29" edge="1">
          <mxGeometry relative="1" as="geometry" />
        </mxCell>
        <mxCell id="EYLl3Ns2B_sOBYtFW0oG-50" style="edgeStyle=orthogonalEdgeStyle;rounded=0;orthogonalLoop=1;jettySize=auto;html=1;exitX=0.25;exitY=0;exitDx=0;exitDy=0;entryX=0.5;entryY=1;entryDx=0;entryDy=0;" parent="1" source="EYLl3Ns2B_sOBYtFW0oG-15" target="EYLl3Ns2B_sOBYtFW0oG-49" edge="1">
          <mxGeometry relative="1" as="geometry" />
        </mxCell>
        <mxCell id="_MRYsETtNkQPvjNhpTKL-55" style="edgeStyle=orthogonalEdgeStyle;rounded=0;orthogonalLoop=1;jettySize=auto;html=1;exitX=0;exitY=0.5;exitDx=0;exitDy=0;entryX=0.5;entryY=0;entryDx=0;entryDy=0;" parent="1" source="EYLl3Ns2B_sOBYtFW0oG-15" target="_MRYsETtNkQPvjNhpTKL-54" edge="1">
          <mxGeometry relative="1" as="geometry" />
        </mxCell>
        <mxCell id="EYLl3Ns2B_sOBYtFW0oG-15" value="AUTORE" style="whiteSpace=wrap;html=1;align=center;" parent="1" vertex="1">
          <mxGeometry x="586" y="147" width="100" height="40" as="geometry" />
        </mxCell>
        <mxCell id="EYLl3Ns2B_sOBYtFW0oG-41" style="edgeStyle=orthogonalEdgeStyle;rounded=0;orthogonalLoop=1;jettySize=auto;html=1;exitX=0.5;exitY=1;exitDx=0;exitDy=0;entryX=0.5;entryY=0;entryDx=0;entryDy=0;" parent="1" source="EYLl3Ns2B_sOBYtFW0oG-16" target="EYLl3Ns2B_sOBYtFW0oG-39" edge="1">
          <mxGeometry relative="1" as="geometry" />
        </mxCell>
        <mxCell id="_MRYsETtNkQPvjNhpTKL-65" style="edgeStyle=orthogonalEdgeStyle;rounded=0;orthogonalLoop=1;jettySize=auto;html=1;exitX=0.25;exitY=1;exitDx=0;exitDy=0;entryX=0.5;entryY=0;entryDx=0;entryDy=0;" parent="1" source="EYLl3Ns2B_sOBYtFW0oG-16" target="_MRYsETtNkQPvjNhpTKL-64" edge="1">
          <mxGeometry relative="1" as="geometry">
            <Array as="points">
              <mxPoint x="59" y="700" />
              <mxPoint x="174" y="700" />
            </Array>
          </mxGeometry>
        </mxCell>
        <mxCell id="EYLl3Ns2B_sOBYtFW0oG-16" value="COPIA" style="shape=ext;margin=3;double=1;whiteSpace=wrap;html=1;align=center;" parent="1" vertex="1">
          <mxGeometry x="34" y="516" width="100" height="40" as="geometry" />
        </mxCell>
        <mxCell id="_MRYsETtNkQPvjNhpTKL-51" style="edgeStyle=orthogonalEdgeStyle;rounded=0;orthogonalLoop=1;jettySize=auto;html=1;exitX=1;exitY=0.5;exitDx=0;exitDy=0;entryX=0.5;entryY=1;entryDx=0;entryDy=0;" parent="1" source="EYLl3Ns2B_sOBYtFW0oG-16" target="_MRYsETtNkQPvjNhpTKL-50" edge="1">
          <mxGeometry relative="1" as="geometry" />
        </mxCell>
        <mxCell id="EYLl3Ns2B_sOBYtFW0oG-17" value="&lt;span style=&quot;border-bottom: 1px dotted&quot;&gt;#copia&lt;/span&gt;" style="ellipse;whiteSpace=wrap;html=1;align=center;" parent="1" vertex="1">
          <mxGeometry y="451" width="100" height="40" as="geometry" />
        </mxCell>
        <mxCell id="EYLl3Ns2B_sOBYtFW0oG-22" value="Nome" style="ellipse;whiteSpace=wrap;html=1;align=center;fontStyle=4;" parent="1" vertex="1">
          <mxGeometry x="535" y="500" width="100" height="40" as="geometry" />
        </mxCell>
        <mxCell id="EYLl3Ns2B_sOBYtFW0oG-25" value="NomeAut" style="ellipse;whiteSpace=wrap;html=1;align=center;fontStyle=4;" parent="1" vertex="1">
          <mxGeometry x="719" y="91" width="100" height="40" as="geometry" />
        </mxCell>
        <mxCell id="EYLl3Ns2B_sOBYtFW0oG-27" value="CognomeAut" style="ellipse;whiteSpace=wrap;html=1;align=center;fontStyle=4;" parent="1" vertex="1">
          <mxGeometry x="722" y="149" width="100" height="40" as="geometry" />
        </mxCell>
        <mxCell id="EYLl3Ns2B_sOBYtFW0oG-29" value="DataNAscita" style="ellipse;whiteSpace=wrap;html=1;align=center;fontStyle=4;" parent="1" vertex="1">
          <mxGeometry x="719" y="212" width="100" height="40" as="geometry" />
        </mxCell>
        <mxCell id="EYLl3Ns2B_sOBYtFW0oG-31" value="ISBN" style="ellipse;whiteSpace=wrap;html=1;align=center;fontStyle=4;" parent="1" vertex="1">
          <mxGeometry x="217" y="345" width="100" height="40" as="geometry" />
        </mxCell>
        <mxCell id="EYLl3Ns2B_sOBYtFW0oG-33" value="Matricola" style="ellipse;whiteSpace=wrap;html=1;align=center;fontStyle=4;" parent="1" vertex="1">
          <mxGeometry x="454" y="802" width="100" height="40" as="geometry" />
        </mxCell>
        <mxCell id="EYLl3Ns2B_sOBYtFW0oG-35" value="Codice" style="ellipse;whiteSpace=wrap;html=1;align=center;fontStyle=4;" parent="1" vertex="1">
          <mxGeometry x="715" y="552" width="100" height="40" as="geometry" />
        </mxCell>
        <mxCell id="EYLl3Ns2B_sOBYtFW0oG-37" value="NomeDip" style="ellipse;whiteSpace=wrap;html=1;align=center;fontStyle=4;" parent="1" vertex="1">
          <mxGeometry y="99" width="100" height="40" as="geometry" />
        </mxCell>
        <mxCell id="EYLl3Ns2B_sOBYtFW0oG-39" value="Possiede" style="shape=rhombus;double=1;perimeter=rhombusPerimeter;whiteSpace=wrap;html=1;align=center;" parent="1" vertex="1">
          <mxGeometry x="117" y="600" width="120" height="60" as="geometry" />
        </mxCell>
        <mxCell id="EYLl3Ns2B_sOBYtFW0oG-42" value="Titolo" style="ellipse;whiteSpace=wrap;html=1;align=center;" parent="1" vertex="1">
          <mxGeometry x="254" y="427" width="100" height="40" as="geometry" />
        </mxCell>
        <mxCell id="EYLl3Ns2B_sOBYtFW0oG-47" value="AnnoPubbl" style="ellipse;whiteSpace=wrap;html=1;align=center;" parent="1" vertex="1">
          <mxGeometry x="429" y="427" width="100" height="40" as="geometry" />
        </mxCell>
        <mxCell id="EYLl3Ns2B_sOBYtFW0oG-49" value="LuogoNascita" style="ellipse;whiteSpace=wrap;html=1;align=center;" parent="1" vertex="1">
          <mxGeometry x="535" y="65" width="100" height="40" as="geometry" />
        </mxCell>
        <mxCell id="EYLl3Ns2B_sOBYtFW0oG-51" value="NomeEd" style="ellipse;whiteSpace=wrap;html=1;align=center;" parent="1" vertex="1">
          <mxGeometry x="913" y="505" width="100" height="40" as="geometry" />
        </mxCell>
        <mxCell id="_MRYsETtNkQPvjNhpTKL-3" style="edgeStyle=orthogonalEdgeStyle;rounded=0;orthogonalLoop=1;jettySize=auto;html=1;exitX=0.5;exitY=1;exitDx=0;exitDy=0;entryX=0.5;entryY=0;entryDx=0;entryDy=0;" parent="1" source="EYLl3Ns2B_sOBYtFW0oG-52" target="EYLl3Ns2B_sOBYtFW0oG-59" edge="1">
          <mxGeometry relative="1" as="geometry" />
        </mxCell>
        <mxCell id="_MRYsETtNkQPvjNhpTKL-4" style="edgeStyle=orthogonalEdgeStyle;rounded=0;orthogonalLoop=1;jettySize=auto;html=1;exitX=0.5;exitY=1;exitDx=0;exitDy=0;entryX=0.5;entryY=0;entryDx=0;entryDy=0;" parent="1" source="EYLl3Ns2B_sOBYtFW0oG-52" target="EYLl3Ns2B_sOBYtFW0oG-60" edge="1">
          <mxGeometry relative="1" as="geometry" />
        </mxCell>
        <mxCell id="_MRYsETtNkQPvjNhpTKL-5" style="edgeStyle=orthogonalEdgeStyle;rounded=0;orthogonalLoop=1;jettySize=auto;html=1;exitX=0.5;exitY=1;exitDx=0;exitDy=0;entryX=0.5;entryY=0;entryDx=0;entryDy=0;" parent="1" source="EYLl3Ns2B_sOBYtFW0oG-52" target="_MRYsETtNkQPvjNhpTKL-1" edge="1">
          <mxGeometry relative="1" as="geometry" />
        </mxCell>
        <mxCell id="_MRYsETtNkQPvjNhpTKL-6" style="edgeStyle=orthogonalEdgeStyle;rounded=0;orthogonalLoop=1;jettySize=auto;html=1;exitX=0.5;exitY=1;exitDx=0;exitDy=0;" parent="1" source="EYLl3Ns2B_sOBYtFW0oG-52" target="_MRYsETtNkQPvjNhpTKL-2" edge="1">
          <mxGeometry relative="1" as="geometry" />
        </mxCell>
        <mxCell id="EYLl3Ns2B_sOBYtFW0oG-52" value="IndirizzoEdit" style="ellipse;whiteSpace=wrap;html=1;align=center;" parent="1" vertex="1">
          <mxGeometry x="833" y="571" width="100" height="40" as="geometry" />
        </mxCell>
        <mxCell id="EYLl3Ns2B_sOBYtFW0oG-56" value="Telefono" style="ellipse;whiteSpace=wrap;html=1;align=center;" parent="1" vertex="1">
          <mxGeometry x="915" y="455" width="100" height="40" as="geometry" />
        </mxCell>
        <mxCell id="EYLl3Ns2B_sOBYtFW0oG-59" value="Via" style="ellipse;whiteSpace=wrap;html=1;align=center;" parent="1" vertex="1">
          <mxGeometry x="686" y="675" width="100" height="40" as="geometry" />
        </mxCell>
        <mxCell id="EYLl3Ns2B_sOBYtFW0oG-60" value="Civico" style="ellipse;whiteSpace=wrap;html=1;align=center;" parent="1" vertex="1">
          <mxGeometry x="798" y="675" width="100" height="40" as="geometry" />
        </mxCell>
        <mxCell id="_MRYsETtNkQPvjNhpTKL-1" value="CAP" style="ellipse;whiteSpace=wrap;html=1;align=center;" parent="1" vertex="1">
          <mxGeometry x="902" y="675" width="100" height="40" as="geometry" />
        </mxCell>
        <mxCell id="_MRYsETtNkQPvjNhpTKL-2" value="Citta" style="ellipse;whiteSpace=wrap;html=1;align=center;" parent="1" vertex="1">
          <mxGeometry x="1010" y="675" width="100" height="40" as="geometry" />
        </mxCell>
        <mxCell id="_MRYsETtNkQPvjNhpTKL-7" value="#telefono" style="ellipse;whiteSpace=wrap;html=1;align=center;" parent="1" vertex="1">
          <mxGeometry x="461" y="942" width="100" height="40" as="geometry" />
        </mxCell>
        <mxCell id="_MRYsETtNkQPvjNhpTKL-13" value="Nome" style="ellipse;whiteSpace=wrap;html=1;align=center;" parent="1" vertex="1">
          <mxGeometry x="494" y="872" width="100" height="40" as="geometry" />
        </mxCell>
        <mxCell id="_MRYsETtNkQPvjNhpTKL-15" value="Cognome" style="ellipse;whiteSpace=wrap;html=1;align=center;" parent="1" vertex="1">
          <mxGeometry x="209" y="878" width="100" height="40" as="geometry" />
        </mxCell>
        <mxCell id="_MRYsETtNkQPvjNhpTKL-17" style="edgeStyle=orthogonalEdgeStyle;rounded=0;orthogonalLoop=1;jettySize=auto;html=1;exitX=0.5;exitY=1;exitDx=0;exitDy=0;entryX=0.5;entryY=0;entryDx=0;entryDy=0;" parent="1" source="_MRYsETtNkQPvjNhpTKL-21" target="_MRYsETtNkQPvjNhpTKL-22" edge="1">
          <mxGeometry relative="1" as="geometry" />
        </mxCell>
        <mxCell id="_MRYsETtNkQPvjNhpTKL-18" style="edgeStyle=orthogonalEdgeStyle;rounded=0;orthogonalLoop=1;jettySize=auto;html=1;exitX=0.5;exitY=1;exitDx=0;exitDy=0;entryX=0.5;entryY=0;entryDx=0;entryDy=0;" parent="1" source="_MRYsETtNkQPvjNhpTKL-21" target="_MRYsETtNkQPvjNhpTKL-23" edge="1">
          <mxGeometry relative="1" as="geometry" />
        </mxCell>
        <mxCell id="_MRYsETtNkQPvjNhpTKL-19" style="edgeStyle=orthogonalEdgeStyle;rounded=0;orthogonalLoop=1;jettySize=auto;html=1;exitX=0.5;exitY=1;exitDx=0;exitDy=0;entryX=0.5;entryY=0;entryDx=0;entryDy=0;" parent="1" source="_MRYsETtNkQPvjNhpTKL-21" target="_MRYsETtNkQPvjNhpTKL-24" edge="1">
          <mxGeometry relative="1" as="geometry" />
        </mxCell>
        <mxCell id="_MRYsETtNkQPvjNhpTKL-20" style="edgeStyle=orthogonalEdgeStyle;rounded=0;orthogonalLoop=1;jettySize=auto;html=1;exitX=0.5;exitY=1;exitDx=0;exitDy=0;" parent="1" source="_MRYsETtNkQPvjNhpTKL-21" target="_MRYsETtNkQPvjNhpTKL-25" edge="1">
          <mxGeometry relative="1" as="geometry" />
        </mxCell>
        <mxCell id="_MRYsETtNkQPvjNhpTKL-21" value="IndirizzoStud" style="ellipse;whiteSpace=wrap;html=1;align=center;" parent="1" vertex="1">
          <mxGeometry x="354" y="967" width="100" height="40" as="geometry" />
        </mxCell>
        <mxCell id="_MRYsETtNkQPvjNhpTKL-22" value="Via" style="ellipse;whiteSpace=wrap;html=1;align=center;" parent="1" vertex="1">
          <mxGeometry x="221" y="1105" width="100" height="40" as="geometry" />
        </mxCell>
        <mxCell id="_MRYsETtNkQPvjNhpTKL-23" value="Civico" style="ellipse;whiteSpace=wrap;html=1;align=center;" parent="1" vertex="1">
          <mxGeometry x="333" y="1105" width="100" height="40" as="geometry" />
        </mxCell>
        <mxCell id="_MRYsETtNkQPvjNhpTKL-24" value="CAP" style="ellipse;whiteSpace=wrap;html=1;align=center;" parent="1" vertex="1">
          <mxGeometry x="437" y="1105" width="100" height="40" as="geometry" />
        </mxCell>
        <mxCell id="_MRYsETtNkQPvjNhpTKL-25" value="Citta" style="ellipse;whiteSpace=wrap;html=1;align=center;" parent="1" vertex="1">
          <mxGeometry x="545" y="1105" width="100" height="40" as="geometry" />
        </mxCell>
        <mxCell id="_MRYsETtNkQPvjNhpTKL-38" style="edgeStyle=orthogonalEdgeStyle;rounded=0;orthogonalLoop=1;jettySize=auto;html=1;exitX=0.5;exitY=1;exitDx=0;exitDy=0;entryX=0.5;entryY=0;entryDx=0;entryDy=0;" parent="1" source="_MRYsETtNkQPvjNhpTKL-42" target="_MRYsETtNkQPvjNhpTKL-43" edge="1">
          <mxGeometry relative="1" as="geometry" />
        </mxCell>
        <mxCell id="_MRYsETtNkQPvjNhpTKL-39" style="edgeStyle=orthogonalEdgeStyle;rounded=0;orthogonalLoop=1;jettySize=auto;html=1;exitX=0.5;exitY=1;exitDx=0;exitDy=0;entryX=0.5;entryY=0;entryDx=0;entryDy=0;" parent="1" source="_MRYsETtNkQPvjNhpTKL-42" target="_MRYsETtNkQPvjNhpTKL-44" edge="1">
          <mxGeometry relative="1" as="geometry" />
        </mxCell>
        <mxCell id="_MRYsETtNkQPvjNhpTKL-40" style="edgeStyle=orthogonalEdgeStyle;rounded=0;orthogonalLoop=1;jettySize=auto;html=1;exitX=0.5;exitY=1;exitDx=0;exitDy=0;entryX=0.5;entryY=0;entryDx=0;entryDy=0;" parent="1" source="_MRYsETtNkQPvjNhpTKL-42" target="_MRYsETtNkQPvjNhpTKL-45" edge="1">
          <mxGeometry relative="1" as="geometry" />
        </mxCell>
        <mxCell id="_MRYsETtNkQPvjNhpTKL-41" style="edgeStyle=orthogonalEdgeStyle;rounded=0;orthogonalLoop=1;jettySize=auto;html=1;exitX=0.5;exitY=1;exitDx=0;exitDy=0;" parent="1" source="_MRYsETtNkQPvjNhpTKL-42" target="_MRYsETtNkQPvjNhpTKL-46" edge="1">
          <mxGeometry relative="1" as="geometry" />
        </mxCell>
        <mxCell id="_MRYsETtNkQPvjNhpTKL-42" value="IndirizzoDip" style="ellipse;whiteSpace=wrap;html=1;align=center;" parent="1" vertex="1">
          <mxGeometry x="269" y="35.5" width="100" height="40" as="geometry" />
        </mxCell>
        <mxCell id="_MRYsETtNkQPvjNhpTKL-43" value="Via" style="ellipse;whiteSpace=wrap;html=1;align=center;" parent="1" vertex="1">
          <mxGeometry x="111" y="170.5" width="100" height="40" as="geometry" />
        </mxCell>
        <mxCell id="_MRYsETtNkQPvjNhpTKL-44" value="Civico" style="ellipse;whiteSpace=wrap;html=1;align=center;" parent="1" vertex="1">
          <mxGeometry x="223" y="170.5" width="100" height="40" as="geometry" />
        </mxCell>
        <mxCell id="_MRYsETtNkQPvjNhpTKL-45" value="CAP" style="ellipse;whiteSpace=wrap;html=1;align=center;" parent="1" vertex="1">
          <mxGeometry x="327" y="170.5" width="100" height="40" as="geometry" />
        </mxCell>
        <mxCell id="_MRYsETtNkQPvjNhpTKL-46" value="Citta" style="ellipse;whiteSpace=wrap;html=1;align=center;" parent="1" vertex="1">
          <mxGeometry x="433" y="170.5" width="100" height="40" as="geometry" />
        </mxCell>
        <mxCell id="_MRYsETtNkQPvjNhpTKL-50" value="Contiene" style="shape=rhombus;perimeter=rhombusPerimeter;whiteSpace=wrap;html=1;align=center;" parent="1" vertex="1">
          <mxGeometry x="24" y="239.57142857142867" width="120" height="60" as="geometry" />
        </mxCell>
        <mxCell id="_MRYsETtNkQPvjNhpTKL-54" value="Scrive" style="shape=rhombus;perimeter=rhombusPerimeter;whiteSpace=wrap;html=1;align=center;" parent="1" vertex="1">
          <mxGeometry x="484" y="243" width="120" height="60" as="geometry" />
        </mxCell>
        <mxCell id="_MRYsETtNkQPvjNhpTKL-58" value="E&#39; scritto" style="shape=rhombus;perimeter=rhombusPerimeter;whiteSpace=wrap;html=1;align=center;" parent="1" vertex="1">
          <mxGeometry x="383.99857142857155" y="632.9971428571429" width="120" height="60" as="geometry" />
        </mxCell>
        <mxCell id="_MRYsETtNkQPvjNhpTKL-61" value="Pubblica" style="shape=rhombus;perimeter=rhombusPerimeter;whiteSpace=wrap;html=1;align=center;" parent="1" vertex="1">
          <mxGeometry x="599.7142857142858" y="335.28571428571445" width="120" height="60" as="geometry" />
        </mxCell>
        <mxCell id="_MRYsETtNkQPvjNhpTKL-82" style="edgeStyle=orthogonalEdgeStyle;rounded=0;orthogonalLoop=1;jettySize=auto;html=1;exitX=1;exitY=0;exitDx=0;exitDy=0;entryX=0;entryY=0.5;entryDx=0;entryDy=0;" parent="1" source="_MRYsETtNkQPvjNhpTKL-64" target="_MRYsETtNkQPvjNhpTKL-81" edge="1">
          <mxGeometry relative="1" as="geometry" />
        </mxCell>
        <mxCell id="_MRYsETtNkQPvjNhpTKL-84" style="edgeStyle=orthogonalEdgeStyle;rounded=0;orthogonalLoop=1;jettySize=auto;html=1;exitX=1;exitY=0.5;exitDx=0;exitDy=0;entryX=0;entryY=0.5;entryDx=0;entryDy=0;" parent="1" source="_MRYsETtNkQPvjNhpTKL-64" target="_MRYsETtNkQPvjNhpTKL-83" edge="1">
          <mxGeometry relative="1" as="geometry" />
        </mxCell>
        <mxCell id="_MRYsETtNkQPvjNhpTKL-88" style="edgeStyle=orthogonalEdgeStyle;rounded=0;orthogonalLoop=1;jettySize=auto;html=1;exitX=0;exitY=0.5;exitDx=0;exitDy=0;entryX=0.5;entryY=0;entryDx=0;entryDy=0;" parent="1" source="_MRYsETtNkQPvjNhpTKL-64" target="_MRYsETtNkQPvjNhpTKL-87" edge="1">
          <mxGeometry relative="1" as="geometry" />
        </mxCell>
        <mxCell id="_MRYsETtNkQPvjNhpTKL-64" value="Prestito" style="shape=rhombus;perimeter=rhombusPerimeter;whiteSpace=wrap;html=1;align=center;" parent="1" vertex="1">
          <mxGeometry x="114" y="752.4285714285716" width="120" height="60" as="geometry" />
        </mxCell>
        <mxCell id="_MRYsETtNkQPvjNhpTKL-66" value="0,N" style="text;html=1;strokeColor=none;fillColor=none;align=center;verticalAlign=middle;whiteSpace=wrap;rounded=0;" parent="1" vertex="1">
          <mxGeometry x="299" y="816.0000000000001" width="40" height="20" as="geometry" />
        </mxCell>
        <mxCell id="_MRYsETtNkQPvjNhpTKL-67" value="0,N" style="text;html=1;strokeColor=none;fillColor=none;align=center;verticalAlign=middle;whiteSpace=wrap;rounded=0;" parent="1" vertex="1">
          <mxGeometry x="84" y="680" width="40" height="20" as="geometry" />
        </mxCell>
        <mxCell id="_MRYsETtNkQPvjNhpTKL-70" value="1,1" style="text;html=1;strokeColor=none;fillColor=none;align=center;verticalAlign=middle;whiteSpace=wrap;rounded=0;" parent="1" vertex="1">
          <mxGeometry x="134" y="559" width="40" height="20" as="geometry" />
        </mxCell>
        <mxCell id="_MRYsETtNkQPvjNhpTKL-71" value="1,N" style="text;html=1;strokeColor=none;fillColor=none;align=center;verticalAlign=middle;whiteSpace=wrap;rounded=0;" parent="1" vertex="1">
          <mxGeometry x="289" y="611" width="40" height="20" as="geometry" />
        </mxCell>
        <mxCell id="_MRYsETtNkQPvjNhpTKL-72" value="0,N" style="text;html=1;strokeColor=none;fillColor=none;align=center;verticalAlign=middle;whiteSpace=wrap;rounded=0;" parent="1" vertex="1">
          <mxGeometry x="526" y="644" width="40" height="20" as="geometry" />
        </mxCell>
        <mxCell id="_MRYsETtNkQPvjNhpTKL-73" value="1,N" style="text;html=1;strokeColor=none;fillColor=none;align=center;verticalAlign=middle;whiteSpace=wrap;rounded=0;" parent="1" vertex="1">
          <mxGeometry x="440" y="579" width="40" height="20" as="geometry" />
        </mxCell>
        <mxCell id="_MRYsETtNkQPvjNhpTKL-75" value="1,N" style="text;html=1;strokeColor=none;fillColor=none;align=center;verticalAlign=middle;whiteSpace=wrap;rounded=0;" parent="1" vertex="1">
          <mxGeometry x="745" y="345" width="40" height="20" as="geometry" />
        </mxCell>
        <mxCell id="_MRYsETtNkQPvjNhpTKL-76" value="1,1" style="text;html=1;strokeColor=none;fillColor=none;align=center;verticalAlign=middle;whiteSpace=wrap;rounded=0;" parent="1" vertex="1">
          <mxGeometry x="540" y="345" width="40" height="20" as="geometry" />
        </mxCell>
        <mxCell id="_MRYsETtNkQPvjNhpTKL-77" value="1,N" style="text;html=1;strokeColor=none;fillColor=none;align=center;verticalAlign=middle;whiteSpace=wrap;rounded=0;" parent="1" vertex="1">
          <mxGeometry x="461" y="307" width="40" height="20" as="geometry" />
        </mxCell>
        <mxCell id="_MRYsETtNkQPvjNhpTKL-78" value="1,N" style="text;html=1;strokeColor=none;fillColor=none;align=center;verticalAlign=middle;whiteSpace=wrap;rounded=0;" parent="1" vertex="1">
          <mxGeometry x="540" y="208" width="40" height="20" as="geometry" />
        </mxCell>
        <mxCell id="_MRYsETtNkQPvjNhpTKL-79" value="1,1" style="text;html=1;strokeColor=none;fillColor=none;align=center;verticalAlign=middle;whiteSpace=wrap;rounded=0;" parent="1" vertex="1">
          <mxGeometry x="100" y="388" width="40" height="20" as="geometry" />
        </mxCell>
        <mxCell id="_MRYsETtNkQPvjNhpTKL-80" value="0,N" style="text;html=1;strokeColor=none;fillColor=none;align=center;verticalAlign=middle;whiteSpace=wrap;rounded=0;" parent="1" vertex="1">
          <mxGeometry x="84" y="136" width="40" height="20" as="geometry" />
        </mxCell>
        <mxCell id="_MRYsETtNkQPvjNhpTKL-81" value="Data_uscita" style="ellipse;whiteSpace=wrap;html=1;align=center;" parent="1" vertex="1">
          <mxGeometry x="233" y="707" width="100" height="40" as="geometry" />
        </mxCell>
        <mxCell id="_MRYsETtNkQPvjNhpTKL-83" value="Data_rientro" style="ellipse;whiteSpace=wrap;html=1;align=center;dashed=1;" parent="1" vertex="1">
          <mxGeometry x="259" y="762" width="100" height="40" as="geometry" />
        </mxCell>
        <mxCell id="_MRYsETtNkQPvjNhpTKL-87" value="Succursale" style="ellipse;whiteSpace=wrap;html=1;align=center;dashed=1;" parent="1" vertex="1">
          <mxGeometry x="20" y="809" width="100" height="40" as="geometry" />
        </mxCell>
      </root>
    </mxGraphModel>
  </diagram>
</mxfile>
